<svg width="1024" height="1024" viewBox="0 0 1024 1024" fill="none" xmlns="http://www.w3.org/2000/svg">
<g clip-path="url(#clip0_1_12)">
<rect width="1024" height="1024" fill="#11111B"/>
<g filter="url(#filter0_f_1_12)">
<path d="M503.224 -207.435C686.812 -57.5275 773.924 1.31848 1058.16 -3.95691C1342.39 -9.2323 1336.38 620.044 773.172 494.189C209.966 368.333 461.265 554.071 274.633 559C153.97 552.05 119.643 522.472 143.043 404.507C137.746 330.199 123.458 289.433 39.2746 221.377C-68.8035 115.679 -66.7083 34.528 3.93318 -133.58C149.425 -278.332 262.457 -285.81 503.224 -207.435Z" fill="#B4BEFE" fill-opacity="0.3"/>
</g>
<g filter="url(#filter1_ii_1_12)">
<path d="M586.609 289.428C589.513 285.727 591.879 284.168 597.547 282.43C601.024 271.811 601.378 265.949 597.547 255.75L412.916 254C407.141 260.325 407.065 264.344 412.916 272.37L431.292 308.235C431.292 308.235 431.292 476.19 433.48 547.483C435.667 618.777 289.537 826.096 279.037 866.772C268.537 907.449 300.038 949 341.164 949H666.674C728.364 949 756.365 917.508 738.864 866.772C721.364 816.036 581.9 607.405 583.109 547.483C584.318 487.562 583.821 389.94 586.609 289.428Z" fill="#CDD6F4"/>
</g>
<g filter="url(#filter2_i_1_12)">
<path d="M648.781 929C703.205 929 727.909 901.224 712.469 856.474L598 660C558.023 689.376 537.17 688.75 502.5 660C457.241 628.744 437.854 627.252 416.5 660L306.797 856.474C297.533 892.351 325.325 929 361.607 929H648.781Z" fill="#B4BEFE"/>
</g>
<g filter="url(#filter3_f_1_12)">
<circle cx="449" cy="176" r="25" fill="#F5C2E7"/>
</g>
<g filter="url(#filter4_f_1_12)">
<circle cx="548" cy="201" r="25" fill="#CBA6F7"/>
</g>
<g filter="url(#filter5_f_1_12)">
<circle cx="548.5" cy="102.5" r="37.5" fill="#B4BEFE"/>
</g>
<g filter="url(#filter6_d_1_12)">
<path d="M456.661 779.295C457.055 778.687 457.945 778.687 458.339 779.295L474.647 804.456C474.862 804.787 474.862 805.213 474.647 805.544L458.339 830.705C457.945 831.313 457.055 831.313 456.661 830.705L440.353 805.544C440.138 805.213 440.138 804.787 440.353 804.456L456.661 779.295Z" fill="#1E1E2E"/>
</g>
<g filter="url(#filter7_d_1_12)">
<path d="M559.661 779.295C560.055 778.687 560.945 778.687 561.339 779.295L577.647 804.456C577.862 804.787 577.862 805.213 577.647 805.544L561.339 830.705C560.945 831.313 560.055 831.313 559.661 830.705L543.353 805.544C543.138 805.213 543.138 804.787 543.353 804.456L559.661 779.295Z" fill="#1E1E2E"/>
</g>
</g>
<defs>
<filter id="filter0_f_1_12" x="-546" y="-757" width="2289" height="1816" filterUnits="userSpaceOnUse" color-interpolation-filters="sRGB">
<feFlood flood-opacity="0" result="BackgroundImageFix"/>
<feBlend mode="normal" in="SourceGraphic" in2="BackgroundImageFix" result="shape"/>
<feGaussianBlur stdDeviation="250" result="effect1_foregroundBlur_1_12"/>
</filter>
<filter id="filter1_ii_1_12" x="267" y="254" width="487" height="700" filterUnits="userSpaceOnUse" color-interpolation-filters="sRGB">
<feFlood flood-opacity="0" result="BackgroundImageFix"/>
<feBlend mode="normal" in="SourceGraphic" in2="BackgroundImageFix" result="shape"/>
<feColorMatrix in="SourceAlpha" type="matrix" values="0 0 0 0 0 0 0 0 0 0 0 0 0 0 0 0 0 0 127 0" result="hardAlpha"/>
<feOffset dx="10" dy="5"/>
<feGaussianBlur stdDeviation="5"/>
<feComposite in2="hardAlpha" operator="arithmetic" k2="-1" k3="1"/>
<feColorMatrix type="matrix" values="0 0 0 0 1 0 0 0 0 1 0 0 0 0 1 0 0 0 0.75 0"/>
<feBlend mode="normal" in2="shape" result="effect1_innerShadow_1_12"/>
<feColorMatrix in="SourceAlpha" type="matrix" values="0 0 0 0 0 0 0 0 0 0 0 0 0 0 0 0 0 0 127 0" result="hardAlpha"/>
<feOffset dx="-20" dy="5"/>
<feGaussianBlur stdDeviation="5"/>
<feComposite in2="hardAlpha" operator="arithmetic" k2="-1" k3="1"/>
<feColorMatrix type="matrix" values="0 0 0 0 1 0 0 0 0 1 0 0 0 0 1 0 0 0 0.75 0"/>
<feBlend mode="normal" in2="effect1_innerShadow_1_12" result="effect2_innerShadow_1_12"/>
</filter>
<filter id="filter2_i_1_12" x="305" y="635.995" width="412" height="293.005" filterUnits="userSpaceOnUse" color-interpolation-filters="sRGB">
<feFlood flood-opacity="0" result="BackgroundImageFix"/>
<feBlend mode="normal" in="SourceGraphic" in2="BackgroundImageFix" result="shape"/>
<feColorMatrix in="SourceAlpha" type="matrix" values="0 0 0 0 0 0 0 0 0 0 0 0 0 0 0 0 0 0 127 0" result="hardAlpha"/>
<feOffset dx="16" dy="32"/>
<feComposite in2="hardAlpha" operator="arithmetic" k2="-1" k3="1"/>
<feColorMatrix type="matrix" values="0 0 0 0 0.796078 0 0 0 0 0.65098 0 0 0 0 0.968627 0 0 0 0.3 0"/>
<feBlend mode="normal" in2="shape" result="effect1_innerShadow_1_12"/>
</filter>
<filter id="filter3_f_1_12" x="420" y="147" width="58" height="58" filterUnits="userSpaceOnUse" color-interpolation-filters="sRGB">
<feFlood flood-opacity="0" result="BackgroundImageFix"/>
<feBlend mode="normal" in="SourceGraphic" in2="BackgroundImageFix" result="shape"/>
<feGaussianBlur stdDeviation="2" result="effect1_foregroundBlur_1_12"/>
</filter>
<filter id="filter4_f_1_12" x="519" y="172" width="58" height="58" filterUnits="userSpaceOnUse" color-interpolation-filters="sRGB">
<feFlood flood-opacity="0" result="BackgroundImageFix"/>
<feBlend mode="normal" in="SourceGraphic" in2="BackgroundImageFix" result="shape"/>
<feGaussianBlur stdDeviation="2" result="effect1_foregroundBlur_1_12"/>
</filter>
<filter id="filter5_f_1_12" x="507" y="61" width="83" height="83" filterUnits="userSpaceOnUse" color-interpolation-filters="sRGB">
<feFlood flood-opacity="0" result="BackgroundImageFix"/>
<feBlend mode="normal" in="SourceGraphic" in2="BackgroundImageFix" result="shape"/>
<feGaussianBlur stdDeviation="2" result="effect1_foregroundBlur_1_12"/>
</filter>
<filter id="filter6_d_1_12" x="436.192" y="778.839" width="42.6167" height="60.3228" filterUnits="userSpaceOnUse" color-interpolation-filters="sRGB">
<feFlood flood-opacity="0" result="BackgroundImageFix"/>
<feColorMatrix in="SourceAlpha" type="matrix" values="0 0 0 0 0 0 0 0 0 0 0 0 0 0 0 0 0 0 127 0" result="hardAlpha"/>
<feOffset dy="4"/>
<feGaussianBlur stdDeviation="2"/>
<feComposite in2="hardAlpha" operator="out"/>
<feColorMatrix type="matrix" values="0 0 0 0 0 0 0 0 0 0 0 0 0 0 0 0 0 0 0.25 0"/>
<feBlend mode="normal" in2="BackgroundImageFix" result="effect1_dropShadow_1_12"/>
<feBlend mode="normal" in="SourceGraphic" in2="effect1_dropShadow_1_12" result="shape"/>
</filter>
<filter id="filter7_d_1_12" x="539.192" y="778.839" width="42.6166" height="60.3228" filterUnits="userSpaceOnUse" color-interpolation-filters="sRGB">
<feFlood flood-opacity="0" result="BackgroundImageFix"/>
<feColorMatrix in="SourceAlpha" type="matrix" values="0 0 0 0 0 0 0 0 0 0 0 0 0 0 0 0 0 0 127 0" result="hardAlpha"/>
<feOffset dy="4"/>
<feGaussianBlur stdDeviation="2"/>
<feComposite in2="hardAlpha" operator="out"/>
<feColorMatrix type="matrix" values="0 0 0 0 0 0 0 0 0 0 0 0 0 0 0 0 0 0 0.25 0"/>
<feBlend mode="normal" in2="BackgroundImageFix" result="effect1_dropShadow_1_12"/>
<feBlend mode="normal" in="SourceGraphic" in2="effect1_dropShadow_1_12" result="shape"/>
</filter>
<clipPath id="clip0_1_12">
<rect width="1024" height="1024" fill="white"/>
</clipPath>
</defs>
</svg>
