<svg width="1024" height="1024" viewBox="0 0 1024 1024" fill="none" xmlns="http://www.w3.org/2000/svg">
<path d="M586.609 289.428C589.513 285.727 591.879 284.168 597.547 282.43C601.024 271.811 601.378 265.949 597.547 255.75L412.916 254C407.141 260.325 407.065 264.344 412.916 272.37L431.292 308.235C431.292 308.235 431.292 476.19 433.48 547.483C435.667 618.777 289.537 826.096 279.037 866.772C268.537 907.449 300.038 949 341.164 949H666.674C728.364 949 756.365 917.508 738.864 866.772C721.364 816.036 581.9 607.405 583.109 547.483C584.318 487.562 583.821 389.94 586.609 289.428Z" stroke="#6C7086" stroke-width="1.5"/>
<circle cx="449" cy="176" r="24.25" stroke="#6C7086" stroke-width="1.5"/>
<circle cx="548" cy="201" r="24.25" stroke="#6C7086" stroke-width="1.5"/>
<circle cx="548.5" cy="102.5" r="36.75" stroke="#6C7086" stroke-width="1.5"/>
<path d="M456.661 779.295C457.055 778.687 457.945 778.687 458.339 779.295L474.647 804.456C474.862 804.787 474.862 805.213 474.647 805.544L458.339 830.705C457.945 831.313 457.055 831.313 456.661 830.705L440.353 805.544C440.138 805.213 440.138 804.787 440.353 804.456L456.661 779.295Z" fill="#6C7086"/>
<path d="M559.661 779.295C560.055 778.687 560.945 778.687 561.339 779.295L577.647 804.456C577.862 804.787 577.862 805.213 577.647 805.544L561.339 830.705C560.945 831.313 560.055 831.313 559.661 830.705L543.353 805.544C543.138 805.213 543.138 804.787 543.353 804.456L559.661 779.295Z" fill="#6C7086"/>
</svg>
